<?xml version="1.0" encoding="utf-8"?>
<!-- Generator: Adobe Illustrator 15.0.0, SVG Export Plug-In . SVG Version: 6.00 Build 0)  -->
<!DOCTYPE svg PUBLIC "-//W3C//DTD SVG 1.1//EN" "http://www.w3.org/Graphics/SVG/1.1/DTD/svg11.dtd">
<svg version="1.1" id="Слой_1" xmlns="http://www.w3.org/2000/svg" xmlns:xlink="http://www.w3.org/1999/xlink" x="0px" y="0px"
	 width="71.964px" height="14.899px" viewBox="0 9.101 71.964 14.899" enable-background="new 0 9.101 71.964 14.899"
	 xml:space="preserve">
<path d="M36.889,19.916c0,2.072,1.17,4.084,4.026,4.084c3.042,0,4.212-2.176,4.212-4.084c0-5.068-7.458-2.77-7.458-7.327
	c0-1.703,1.089-3.365,3.329-3.365c2.116,0,3.451,1.191,3.451,3.263v0.349h0.41v-0.309c0.001-1.723-0.964-3.673-3.819-3.673
	c-2.877,0-3.781,2.237-3.781,3.653c0,2.483,1.644,3.181,3.862,3.879c1.726,0.553,3.597,1.17,3.597,3.426
	c0,2.648-1.768,3.818-3.823,3.818c-2.301,0-3.596-1.479-3.596-3.715v-0.637H36.89L36.889,19.916L36.889,19.916z M51.478,23.754
	h6.843v-0.369h-6.431v-7.101h5.814v-0.37h-5.814V9.47h6.267v-0.37h-6.679V23.754z M67.566,23.754V9.47H63.58v-0.37h8.384v0.37
	h-3.986v14.284H67.566z M10.007,9.101h1.584c-0.787,0.792-1.495,1.659-2.116,2.587L10.007,9.101L10.007,9.101z M10.758,14.512
	c0.649-1.443,1.6-2.796,2.826-4.019c0.505-0.505,1.048-0.97,1.625-1.392h2.506c-1.192,0.548-2.278,1.305-3.205,2.235
	c-0.922,0.921-1.663,1.93-2.198,3c-0.519,1.037-0.833,2.102-0.934,3.166c-0.205,2.154,0.491,4.145,1.957,5.605
	c0.304,0.305,0.641,0.574,1.003,0.805h-2.591c-0.58-0.65-1.041-1.398-1.364-2.209c-0.378-0.959-0.57-1.984-0.564-3.016
	C9.818,17.305,10.135,15.898,10.758,14.512L10.758,14.512z M9.325,18.688c0,1.127,0.202,2.203,0.6,3.197
	c0.291,0.73,0.688,1.414,1.178,2.027H8.905c-0.242-0.406-0.452-0.83-0.628-1.27c-0.289-0.723-0.488-1.479-0.59-2.25l1.491-7.258
	c0.729-1.348,1.688-2.62,2.86-3.787c0.084-0.083,0.168-0.166,0.252-0.247h2.112c-0.407,0.327-0.796,0.676-1.167,1.045
	c-1.268,1.266-2.253,2.667-2.927,4.165C9.657,15.761,9.326,17.234,9.325,18.688L9.325,18.688z M21.975,18.715
	c-0.466,0.469-1.027,0.834-1.646,1.068l0.16-0.773c0.425-0.184,0.813-0.445,1.141-0.773c0.547-0.545,0.878-1.223,0.933-1.91
	c0.055-0.691-0.168-1.327-0.632-1.789c-0.135-0.133-0.287-0.247-0.454-0.338l0.17-0.826c0.334,0.123,0.633,0.313,0.885,0.564
	c0.521,0.508,0.813,1.205,0.809,1.933C23.341,16.826,22.856,17.838,21.975,18.715z M22.073,16.287
	c-0.045,0.57-0.326,1.141-0.791,1.604c-0.201,0.201-0.428,0.371-0.668,0.51l0.757-3.691c0.076,0.053,0.146,0.11,0.212,0.175
	C21.943,15.242,22.117,15.74,22.073,16.287z M23.833,15.87c0-0.87-0.33-1.657-0.953-2.278c-0.32-0.316-0.708-0.557-1.135-0.702
	l0.194-0.942c0.625,0.158,1.18,0.466,1.626,0.911c1.711,1.706,1.387,4.603-0.753,6.737c-0.824,0.822-1.797,1.395-2.783,1.654
	l0.187-0.908c0.766-0.23,1.496-0.67,2.108-1.279C23.296,18.092,23.833,16.957,23.833,15.87L23.833,15.87z M7.82,22.824
	c0.15,0.375,0.323,0.738,0.517,1.088H6.964l0.467-2.273C7.536,22.043,7.666,22.438,7.82,22.824z M14.074,12.543
	c0.244-0.295,0.505-0.583,0.785-0.861c1.25-1.247,2.711-2.114,4.197-2.581h1.382l-0.159,0.779c-1.716,0.249-3.388,1.115-4.733,2.456
	c-0.069,0.069-0.137,0.139-0.204,0.209L14.074,12.543L14.074,12.543z M23.16,19.943c2.339-2.332,2.663-5.527,0.753-7.432
	c-0.518-0.513-1.166-0.875-1.874-1.045l0.222-1.085c0.968,0.169,1.849,0.594,2.545,1.289c0.934,0.931,1.436,2.077,1.482,3.355
	c0.011,0.346-0.008,0.692-0.058,1.034c-0.23,1.572-1.078,3.158-2.389,4.465c-1.156,1.154-2.634,1.945-4.123,2.238l0.201-0.98
	C21.07,21.529,22.209,20.891,23.16,19.943z M18.449,14.658c-0.105,0.084-0.207,0.174-0.302,0.27
	c-0.654,0.652-1.015,1.443-1.015,2.225c0,0.357,0.079,0.697,0.229,1h-0.875c-0.069-0.254-0.104-0.516-0.103-0.779
	c0-0.93,0.42-1.908,1.16-2.715H18.449z M19.856,11.942l-0.124,0.601h-1.444C18.778,12.267,19.307,12.064,19.856,11.942
	L19.856,11.942z M25.154,11.323c-0.589-0.586-1.313-1.019-2.109-1.259C22.82,9.996,22.591,9.941,22.36,9.9l0.165-0.8h1.437
	c0.786,0.285,1.499,0.738,2.092,1.327c0.608,0.601,1.085,1.321,1.401,2.116h-0.656l-0.231,1.129
	c-0.007-0.025-0.015-0.049-0.022-0.073C26.285,12.75,25.817,11.984,25.154,11.323z M27.98,12.543
	c-0.338-0.928-0.877-1.768-1.58-2.462c-0.383-0.383-0.816-0.712-1.288-0.98h2.682c0.905,0.969,1.545,2.154,1.859,3.442H27.98z
	 M19.962,11.421c-0.904,0.163-1.79,0.549-2.585,1.123h-1.341c1.23-1.174,2.7-1.901,4.137-2.15L19.962,11.421z M18.119,20.402
	l-0.189,0.91c-0.643-0.148-1.236-0.463-1.72-0.914h1.911L18.119,20.402L18.119,20.402z M13.468,17.941
	c0-1.105,0.314-2.227,0.909-3.282h1.052c-0.564,0.938-0.871,1.972-0.871,2.979c0,0.176,0.009,0.346,0.027,0.514h-1.113
	C13.469,18.082,13.468,18.012,13.468,17.941z M17.829,21.793l-0.215,1.031c-1.063-0.158-1.997-0.617-2.734-1.354
	c-0.317-0.316-0.587-0.678-0.802-1.072h1.451C16.125,21.1,16.932,21.588,17.829,21.793z M11.868,17.547
	c0.157-1.652,0.876-3.324,2.054-4.814l-0.393,1.926h0.288c-0.551,1.06-0.842,2.178-0.842,3.283c0,0.072,0.002,0.141,0.004,0.211
	h-0.172l-0.451,2.246h1.168c0.253,0.527,0.594,1.008,1.007,1.42c0.808,0.805,1.827,1.311,2.981,1.488l-0.126,0.607h-2.007
	c-0.632-0.275-1.208-0.666-1.697-1.15C12.322,21.406,11.678,19.555,11.868,17.547L11.868,17.547z M15.048,17.639
	c0-1.01,0.341-2.051,0.96-2.979h0.889c-0.255,0.323-0.469,0.677-0.637,1.052c-0.239,0.521-0.365,1.088-0.37,1.662
	c0,0.268,0.031,0.529,0.089,0.779h-0.9C15.059,17.982,15.048,17.811,15.048,17.639z M19.612,23.279
	c1.651-0.279,3.302-1.135,4.578-2.408c0.443-0.439,0.843-0.922,1.194-1.438l-0.41,1.99c-0.05,0.053-0.102,0.105-0.154,0.158
	c-1.044,1.037-2.302,1.832-3.686,2.33h-1.652L19.612,23.279z M24.461,23.914h-2.078c0.876-0.432,1.689-0.982,2.415-1.637
	L24.461,23.914z M27.888,15.219c-0.009,0.193-0.025,0.389-0.049,0.585c-0.12,0.979-0.43,1.962-0.911,2.909h-1.102
	c0.458-0.834,0.763-1.711,0.891-2.584c0.044-0.301,0.066-0.605,0.066-0.91H27.888L27.888,15.219z M30.769,9.101
	c0.229,0.395,0.429,0.808,0.6,1.237c0.278,0.703,0.473,1.44,0.584,2.206h-1.794c-0.29-1.267-0.875-2.446-1.71-3.442H30.769z
	 M31.333,9.101h1.418l-0.496,2.415c-0.201-0.841-0.511-1.653-0.921-2.415H31.333z M30.332,15.607
	c0.014-0.131,0.025-0.26,0.034-0.389h1.001l-0.707,3.494h-1.134C29.943,17.721,30.214,16.676,30.332,15.607z M29.873,15.219
	c-0.007,0.111-0.018,0.225-0.029,0.336c-0.112,1.063-0.402,2.127-0.852,3.158h-1.517c0.445-0.93,0.735-1.891,0.853-2.85
	c0.027-0.217,0.044-0.432,0.053-0.645H29.873z M18.494,15.275c0.192-0.193,0.409-0.36,0.645-0.496l-0.682,3.373H17.93
	c-0.205-0.293-0.313-0.643-0.307-1C17.623,16.502,17.932,15.834,18.494,15.275L18.494,15.275z"/>
</svg>
